<mxfile host="app.diagrams.net" modified="2024-02-27T19:18:39.720Z" agent="Mozilla/5.0 (Windows NT 10.0; Win64; x64) AppleWebKit/537.36 (KHTML, like Gecko) Chrome/122.0.0.0 Safari/537.36" etag="LotI_FnKIiniNHoEuCWy" version="23.1.7" type="device">
  <diagram name="PÃ¡gina-1" id="C18LEXyRKkv_gAr0BB48">
    <mxGraphModel dx="1313" dy="1875" grid="1" gridSize="10" guides="1" tooltips="1" connect="1" arrows="1" fold="1" page="1" pageScale="1" pageWidth="827" pageHeight="1169" math="0" shadow="0">
      <root>
        <mxCell id="0" />
        <mxCell id="1" parent="0" />
        <mxCell id="S1Diq4Zyp4PbXrbqY8i5-1" value="" style="image;html=1;image=img/lib/clip_art/computers/Printer_128x128.png" parent="1" vertex="1">
          <mxGeometry x="110" y="407.6" width="59.64" height="50" as="geometry" />
        </mxCell>
        <mxCell id="S1Diq4Zyp4PbXrbqY8i5-2" value="" style="image;html=1;image=img/lib/clip_art/computers/Printer_128x128.png" parent="1" vertex="1">
          <mxGeometry x="189.63999999999996" y="406.4" width="56.77" height="52.4" as="geometry" />
        </mxCell>
        <mxCell id="S1Diq4Zyp4PbXrbqY8i5-3" value="" style="image;html=1;image=img/lib/clip_art/computers/Printer_128x128.png" parent="1" vertex="1">
          <mxGeometry x="270.36" y="407.6" width="60" height="50" as="geometry" />
        </mxCell>
        <mxCell id="S1Diq4Zyp4PbXrbqY8i5-24" style="edgeStyle=orthogonalEdgeStyle;rounded=0;orthogonalLoop=1;jettySize=auto;html=1;exitX=0.5;exitY=1;exitDx=0;exitDy=0;" parent="1" source="S1Diq4Zyp4PbXrbqY8i5-5" edge="1">
          <mxGeometry relative="1" as="geometry">
            <mxPoint x="373.2352941176471" y="280" as="targetPoint" />
          </mxGeometry>
        </mxCell>
        <mxCell id="S1Diq4Zyp4PbXrbqY8i5-70" style="edgeStyle=orthogonalEdgeStyle;rounded=0;orthogonalLoop=1;jettySize=auto;html=1;exitX=1;exitY=0.25;exitDx=0;exitDy=0;entryX=0.5;entryY=1;entryDx=0;entryDy=0;fillColor=#dae8fc;strokeColor=#6c8ebf;" parent="1" source="S1Diq4Zyp4PbXrbqY8i5-5" target="S1Diq4Zyp4PbXrbqY8i5-69" edge="1">
          <mxGeometry relative="1" as="geometry">
            <mxPoint x="580" y="200" as="targetPoint" />
          </mxGeometry>
        </mxCell>
        <mxCell id="S1Diq4Zyp4PbXrbqY8i5-71" style="edgeStyle=orthogonalEdgeStyle;rounded=0;orthogonalLoop=1;jettySize=auto;html=1;entryX=0.5;entryY=1;entryDx=0;entryDy=0;fillColor=#dae8fc;strokeColor=#6c8ebf;" parent="1" source="S1Diq4Zyp4PbXrbqY8i5-5" target="S1Diq4Zyp4PbXrbqY8i5-68" edge="1">
          <mxGeometry relative="1" as="geometry">
            <mxPoint x="480" y="170" as="targetPoint" />
            <Array as="points">
              <mxPoint x="480" y="190" />
            </Array>
          </mxGeometry>
        </mxCell>
        <mxCell id="S1Diq4Zyp4PbXrbqY8i5-114" style="edgeStyle=orthogonalEdgeStyle;rounded=0;orthogonalLoop=1;jettySize=auto;html=1;exitX=1;exitY=0.5;exitDx=0;exitDy=0;fillColor=#dae8fc;strokeColor=#6c8ebf;" parent="1" source="S1Diq4Zyp4PbXrbqY8i5-5" edge="1">
          <mxGeometry relative="1" as="geometry">
            <mxPoint x="570" y="210" as="targetPoint" />
          </mxGeometry>
        </mxCell>
        <mxCell id="S1Diq4Zyp4PbXrbqY8i5-5" value="" style="image;html=1;image=img/lib/clip_art/computers/Server_Rack_128x128.png" parent="1" vertex="1">
          <mxGeometry x="330.36" y="170" width="86.26" height="80" as="geometry" />
        </mxCell>
        <mxCell id="S1Diq4Zyp4PbXrbqY8i5-14" style="edgeStyle=orthogonalEdgeStyle;rounded=0;orthogonalLoop=1;jettySize=auto;html=1;exitX=0.5;exitY=1;exitDx=0;exitDy=0;" parent="1" source="S1Diq4Zyp4PbXrbqY8i5-6" edge="1">
          <mxGeometry relative="1" as="geometry">
            <mxPoint x="374.23076923076906" y="90" as="targetPoint" />
          </mxGeometry>
        </mxCell>
        <mxCell id="S1Diq4Zyp4PbXrbqY8i5-6" value="" style="image;aspect=fixed;perimeter=ellipsePerimeter;html=1;align=center;shadow=0;dashed=0;spacingTop=3;image=img/lib/active_directory/internet_cloud.svg;" parent="1" vertex="1">
          <mxGeometry x="310" y="-50" width="126.98" height="80" as="geometry" />
        </mxCell>
        <mxCell id="S1Diq4Zyp4PbXrbqY8i5-8" value="INTERNET" style="text;strokeColor=none;align=center;fillColor=none;html=1;verticalAlign=middle;whiteSpace=wrap;rounded=0;" parent="1" vertex="1">
          <mxGeometry x="343.49" y="-25" width="60" height="30" as="geometry" />
        </mxCell>
        <mxCell id="S1Diq4Zyp4PbXrbqY8i5-17" style="edgeStyle=orthogonalEdgeStyle;rounded=0;orthogonalLoop=1;jettySize=auto;html=1;" parent="1" source="S1Diq4Zyp4PbXrbqY8i5-10" edge="1">
          <mxGeometry relative="1" as="geometry">
            <mxPoint x="373.4849999999999" y="170" as="targetPoint" />
          </mxGeometry>
        </mxCell>
        <mxCell id="S1Diq4Zyp4PbXrbqY8i5-10" value="" style="sketch=0;pointerEvents=1;shadow=0;dashed=0;html=1;strokeColor=none;fillColor=#505050;labelPosition=center;verticalLabelPosition=bottom;verticalAlign=top;outlineConnect=0;align=center;shape=mxgraph.office.devices.modem;" parent="1" vertex="1">
          <mxGeometry x="333.23" y="80" width="80.51" height="50" as="geometry" />
        </mxCell>
        <mxCell id="S1Diq4Zyp4PbXrbqY8i5-64" style="edgeStyle=orthogonalEdgeStyle;rounded=0;orthogonalLoop=1;jettySize=auto;html=1;fillColor=#dae8fc;strokeColor=#6c8ebf;entryX=1;entryY=0.5;entryDx=0;entryDy=0;entryPerimeter=0;" parent="1" edge="1" target="S1Diq4Zyp4PbXrbqY8i5-50">
          <mxGeometry relative="1" as="geometry">
            <mxPoint x="220" y="130" as="targetPoint" />
            <mxPoint x="320" y="320" as="sourcePoint" />
            <Array as="points">
              <mxPoint x="327" y="320" />
              <mxPoint x="210" y="320" />
              <mxPoint x="210" y="130" />
            </Array>
          </mxGeometry>
        </mxCell>
        <mxCell id="S1Diq4Zyp4PbXrbqY8i5-66" style="edgeStyle=orthogonalEdgeStyle;rounded=0;orthogonalLoop=1;jettySize=auto;html=1;fillColor=#dae8fc;strokeColor=#6c8ebf;entryX=1.082;entryY=0.649;entryDx=0;entryDy=0;entryPerimeter=0;" parent="1" source="S1Diq4Zyp4PbXrbqY8i5-22" edge="1" target="S1Diq4Zyp4PbXrbqY8i5-49">
          <mxGeometry relative="1" as="geometry">
            <mxPoint x="220" y="350" as="targetPoint" />
            <Array as="points">
              <mxPoint x="210" y="320" />
              <mxPoint x="210" y="350" />
              <mxPoint x="104" y="350" />
            </Array>
          </mxGeometry>
        </mxCell>
        <mxCell id="S1Diq4Zyp4PbXrbqY8i5-67" style="edgeStyle=orthogonalEdgeStyle;rounded=0;orthogonalLoop=1;jettySize=auto;html=1;fillColor=#dae8fc;strokeColor=#6c8ebf;" parent="1" target="S1Diq4Zyp4PbXrbqY8i5-48" edge="1">
          <mxGeometry relative="1" as="geometry">
            <mxPoint x="250" y="320" as="targetPoint" />
            <mxPoint x="320" y="320" as="sourcePoint" />
            <Array as="points">
              <mxPoint x="320" y="320" />
              <mxPoint x="210" y="320" />
              <mxPoint x="210" y="295" />
            </Array>
          </mxGeometry>
        </mxCell>
        <mxCell id="S1Diq4Zyp4PbXrbqY8i5-72" style="edgeStyle=orthogonalEdgeStyle;rounded=0;orthogonalLoop=1;jettySize=auto;html=1;fillColor=#dae8fc;strokeColor=#6c8ebf;" parent="1" source="S1Diq4Zyp4PbXrbqY8i5-22" target="S1Diq4Zyp4PbXrbqY8i5-47" edge="1">
          <mxGeometry relative="1" as="geometry">
            <mxPoint x="220" y="250" as="targetPoint" />
            <Array as="points">
              <mxPoint x="210" y="320" />
              <mxPoint x="210" y="250" />
            </Array>
          </mxGeometry>
        </mxCell>
        <mxCell id="S1Diq4Zyp4PbXrbqY8i5-73" style="edgeStyle=orthogonalEdgeStyle;rounded=0;orthogonalLoop=1;jettySize=auto;html=1;fillColor=#dae8fc;strokeColor=#6c8ebf;" parent="1" edge="1" target="S1Diq4Zyp4PbXrbqY8i5-45">
          <mxGeometry relative="1" as="geometry">
            <mxPoint x="220" y="180" as="targetPoint" />
            <Array as="points">
              <mxPoint x="210" y="320" />
              <mxPoint x="210" y="180" />
            </Array>
            <mxPoint x="320" y="320" as="sourcePoint" />
          </mxGeometry>
        </mxCell>
        <mxCell id="S1Diq4Zyp4PbXrbqY8i5-83" style="edgeStyle=orthogonalEdgeStyle;rounded=0;orthogonalLoop=1;jettySize=auto;html=1;exitX=0.5;exitY=1;exitDx=0;exitDy=0;entryX=0.35;entryY=1.034;entryDx=0;entryDy=0;entryPerimeter=0;fillColor=#f8cecc;strokeColor=#b85450;" parent="1" source="S1Diq4Zyp4PbXrbqY8i5-22" target="S1Diq4Zyp4PbXrbqY8i5-1" edge="1">
          <mxGeometry relative="1" as="geometry">
            <mxPoint x="130" y="500" as="targetPoint" />
            <Array as="points">
              <mxPoint x="377" y="510" />
              <mxPoint x="131" y="510" />
            </Array>
          </mxGeometry>
        </mxCell>
        <mxCell id="S1Diq4Zyp4PbXrbqY8i5-86" style="edgeStyle=orthogonalEdgeStyle;rounded=0;orthogonalLoop=1;jettySize=auto;html=1;fillColor=#f8cecc;strokeColor=#b85450;" parent="1" source="S1Diq4Zyp4PbXrbqY8i5-22" edge="1">
          <mxGeometry relative="1" as="geometry">
            <mxPoint x="220" y="470" as="targetPoint" />
            <Array as="points">
              <mxPoint x="377" y="490" />
              <mxPoint x="378" y="490" />
              <mxPoint x="378" y="510" />
              <mxPoint x="220" y="510" />
            </Array>
          </mxGeometry>
        </mxCell>
        <mxCell id="S1Diq4Zyp4PbXrbqY8i5-87" style="edgeStyle=orthogonalEdgeStyle;rounded=0;orthogonalLoop=1;jettySize=auto;html=1;fillColor=#f8cecc;strokeColor=#b85450;" parent="1" source="S1Diq4Zyp4PbXrbqY8i5-22" edge="1">
          <mxGeometry relative="1" as="geometry">
            <mxPoint x="300" y="470" as="targetPoint" />
            <Array as="points">
              <mxPoint x="378" y="510" />
              <mxPoint x="300" y="510" />
            </Array>
            <mxPoint x="390" y="380" as="sourcePoint" />
          </mxGeometry>
        </mxCell>
        <mxCell id="S1Diq4Zyp4PbXrbqY8i5-88" style="edgeStyle=orthogonalEdgeStyle;rounded=0;orthogonalLoop=1;jettySize=auto;html=1;exitX=0.75;exitY=1;exitDx=0;exitDy=0;fontColor=#ff0000;fillColor=#d5e8d4;strokeColor=#82b366;" parent="1" source="S1Diq4Zyp4PbXrbqY8i5-22" edge="1">
          <mxGeometry relative="1" as="geometry">
            <mxPoint x="810" y="640" as="targetPoint" />
            <Array as="points">
              <mxPoint x="397" y="640" />
              <mxPoint x="790" y="640" />
            </Array>
          </mxGeometry>
        </mxCell>
        <mxCell id="S1Diq4Zyp4PbXrbqY8i5-98" style="edgeStyle=orthogonalEdgeStyle;rounded=0;orthogonalLoop=1;jettySize=auto;html=1;exitX=0.75;exitY=1;exitDx=0;exitDy=0;fillColor=#d5e8d4;strokeColor=#82b366;" parent="1" source="S1Diq4Zyp4PbXrbqY8i5-22" target="S1Diq4Zyp4PbXrbqY8i5-90" edge="1">
          <mxGeometry relative="1" as="geometry">
            <mxPoint x="490" y="620" as="targetPoint" />
            <Array as="points">
              <mxPoint x="397" y="640" />
              <mxPoint x="480" y="640" />
            </Array>
          </mxGeometry>
        </mxCell>
        <mxCell id="S1Diq4Zyp4PbXrbqY8i5-100" style="edgeStyle=orthogonalEdgeStyle;rounded=0;orthogonalLoop=1;jettySize=auto;html=1;exitX=0.75;exitY=1;exitDx=0;exitDy=0;fillColor=#d5e8d4;strokeColor=#82b366;" parent="1" target="S1Diq4Zyp4PbXrbqY8i5-92" edge="1">
          <mxGeometry relative="1" as="geometry">
            <mxPoint x="639" y="620" as="targetPoint" />
            <mxPoint x="395.6199999999999" y="430" as="sourcePoint" />
            <Array as="points">
              <mxPoint x="396" y="640" />
              <mxPoint x="640" y="640" />
            </Array>
          </mxGeometry>
        </mxCell>
        <mxCell id="S1Diq4Zyp4PbXrbqY8i5-102" style="edgeStyle=orthogonalEdgeStyle;rounded=0;orthogonalLoop=1;jettySize=auto;html=1;exitX=0.75;exitY=1;exitDx=0;exitDy=0;fillColor=#d5e8d4;strokeColor=#82b366;" parent="1" source="S1Diq4Zyp4PbXrbqY8i5-22" target="S1Diq4Zyp4PbXrbqY8i5-93" edge="1">
          <mxGeometry relative="1" as="geometry">
            <Array as="points">
              <mxPoint x="397" y="640" />
              <mxPoint x="715" y="640" />
            </Array>
          </mxGeometry>
        </mxCell>
        <mxCell id="S1Diq4Zyp4PbXrbqY8i5-106" style="edgeStyle=orthogonalEdgeStyle;rounded=0;orthogonalLoop=1;jettySize=auto;html=1;exitX=0.75;exitY=1;exitDx=0;exitDy=0;entryX=0.5;entryY=1;entryDx=0;entryDy=0;fillColor=#d5e8d4;strokeColor=#82b366;" parent="1" source="S1Diq4Zyp4PbXrbqY8i5-22" target="S1Diq4Zyp4PbXrbqY8i5-103" edge="1">
          <mxGeometry relative="1" as="geometry">
            <mxPoint x="440" y="660" as="targetPoint" />
            <Array as="points">
              <mxPoint x="397" y="640" />
              <mxPoint x="485" y="640" />
            </Array>
          </mxGeometry>
        </mxCell>
        <mxCell id="S1Diq4Zyp4PbXrbqY8i5-108" style="edgeStyle=orthogonalEdgeStyle;rounded=0;orthogonalLoop=1;jettySize=auto;html=1;exitX=0.75;exitY=1;exitDx=0;exitDy=0;entryX=0.5;entryY=1;entryDx=0;entryDy=0;fillColor=#d5e8d4;strokeColor=#82b366;" parent="1" source="S1Diq4Zyp4PbXrbqY8i5-22" target="S1Diq4Zyp4PbXrbqY8i5-104" edge="1">
          <mxGeometry relative="1" as="geometry">
            <mxPoint x="560" y="620" as="targetPoint" />
            <Array as="points">
              <mxPoint x="397" y="640" />
              <mxPoint x="560" y="640" />
            </Array>
          </mxGeometry>
        </mxCell>
        <mxCell id="S1Diq4Zyp4PbXrbqY8i5-109" style="edgeStyle=orthogonalEdgeStyle;rounded=0;orthogonalLoop=1;jettySize=auto;html=1;entryX=0.5;entryY=1;entryDx=0;entryDy=0;fillColor=#d5e8d4;strokeColor=#82b366;" parent="1" target="S1Diq4Zyp4PbXrbqY8i5-105" edge="1">
          <mxGeometry relative="1" as="geometry">
            <mxPoint x="420" y="670" as="targetPoint" />
            <Array as="points">
              <mxPoint x="397" y="640" />
              <mxPoint x="640" y="640" />
            </Array>
            <mxPoint x="397" y="450" as="sourcePoint" />
          </mxGeometry>
        </mxCell>
        <mxCell id="S1Diq4Zyp4PbXrbqY8i5-111" style="edgeStyle=orthogonalEdgeStyle;rounded=0;orthogonalLoop=1;jettySize=auto;html=1;fontColor=#007FFF;fillColor=#d5e8d4;strokeColor=#82b366;" parent="1" edge="1">
          <mxGeometry relative="1" as="geometry">
            <mxPoint x="740" y="600" as="targetPoint" />
            <Array as="points">
              <mxPoint x="397" y="640" />
              <mxPoint x="740" y="640" />
            </Array>
            <mxPoint x="397" y="430" as="sourcePoint" />
          </mxGeometry>
        </mxCell>
        <mxCell id="S1Diq4Zyp4PbXrbqY8i5-22" value="" style="image;html=1;image=img/lib/clip_art/networking/Switch_128x128.png" parent="1" vertex="1">
          <mxGeometry x="336.62" y="278.8" width="80" height="80" as="geometry" />
        </mxCell>
        <mxCell id="S1Diq4Zyp4PbXrbqY8i5-32" value="" style="image;points=[];aspect=fixed;html=1;align=center;shadow=0;dashed=0;image=img/lib/allied_telesis/computer_and_terminals/Personal_Computer_with_Server.svg;" parent="1" vertex="1">
          <mxGeometry x="615" y="245" width="50" height="50" as="geometry" />
        </mxCell>
        <mxCell id="S1Diq4Zyp4PbXrbqY8i5-33" value="" style="image;points=[];aspect=fixed;html=1;align=center;shadow=0;dashed=0;image=img/lib/allied_telesis/computer_and_terminals/Personal_Computer_with_Server.svg;" parent="1" vertex="1">
          <mxGeometry x="620" y="430" width="50" height="50" as="geometry" />
        </mxCell>
        <mxCell id="S1Diq4Zyp4PbXrbqY8i5-34" value="" style="image;points=[];aspect=fixed;html=1;align=center;shadow=0;dashed=0;image=img/lib/allied_telesis/computer_and_terminals/Personal_Computer_with_Server.svg;" parent="1" vertex="1">
          <mxGeometry x="642.4" y="358.8" width="47.6" height="47.6" as="geometry" />
        </mxCell>
        <mxCell id="S1Diq4Zyp4PbXrbqY8i5-35" value="" style="image;points=[];aspect=fixed;html=1;align=center;shadow=0;dashed=0;image=img/lib/allied_telesis/computer_and_terminals/Personal_Computer_with_Server.svg;" parent="1" vertex="1">
          <mxGeometry x="627.6" y="295" width="50" height="50" as="geometry" />
        </mxCell>
        <mxCell id="S1Diq4Zyp4PbXrbqY8i5-40" style="edgeStyle=orthogonalEdgeStyle;rounded=0;orthogonalLoop=1;jettySize=auto;html=1;exitX=1;exitY=0.75;exitDx=0;exitDy=0;entryX=-0.021;entryY=0.368;entryDx=0;entryDy=0;entryPerimeter=0;fillColor=#f8cecc;strokeColor=#b85450;" parent="1" source="S1Diq4Zyp4PbXrbqY8i5-22" target="S1Diq4Zyp4PbXrbqY8i5-34" edge="1">
          <mxGeometry relative="1" as="geometry" />
        </mxCell>
        <mxCell id="S1Diq4Zyp4PbXrbqY8i5-43" style="edgeStyle=orthogonalEdgeStyle;rounded=0;orthogonalLoop=1;jettySize=auto;html=1;entryX=0;entryY=0.5;entryDx=0;entryDy=0;entryPerimeter=0;fillColor=#f8cecc;strokeColor=#b85450;" parent="1" source="knD-qnPcOZu40A_G0OKL-11" target="S1Diq4Zyp4PbXrbqY8i5-33" edge="1">
          <mxGeometry relative="1" as="geometry">
            <mxPoint x="380" y="370" as="sourcePoint" />
          </mxGeometry>
        </mxCell>
        <mxCell id="S1Diq4Zyp4PbXrbqY8i5-45" value="" style="image;points=[];aspect=fixed;html=1;align=center;shadow=0;dashed=0;image=img/lib/allied_telesis/computer_and_terminals/Personal_Computer_with_Server.svg;" parent="1" vertex="1">
          <mxGeometry x="50" y="155" width="50" height="50" as="geometry" />
        </mxCell>
        <mxCell id="S1Diq4Zyp4PbXrbqY8i5-47" value="" style="image;points=[];aspect=fixed;html=1;align=center;shadow=0;dashed=0;image=img/lib/allied_telesis/computer_and_terminals/Personal_Computer_with_Server.svg;" parent="1" vertex="1">
          <mxGeometry x="50" y="215" width="50" height="50" as="geometry" />
        </mxCell>
        <mxCell id="S1Diq4Zyp4PbXrbqY8i5-48" value="" style="image;points=[];aspect=fixed;html=1;align=center;shadow=0;dashed=0;image=img/lib/allied_telesis/computer_and_terminals/Personal_Computer_with_Server.svg;" parent="1" vertex="1">
          <mxGeometry x="50" y="265" width="50" height="50" as="geometry" />
        </mxCell>
        <mxCell id="S1Diq4Zyp4PbXrbqY8i5-49" value="" style="image;points=[];aspect=fixed;html=1;align=center;shadow=0;dashed=0;image=img/lib/allied_telesis/computer_and_terminals/Personal_Computer_with_Server.svg;" parent="1" vertex="1">
          <mxGeometry x="50" y="315" width="50" height="50" as="geometry" />
        </mxCell>
        <mxCell id="S1Diq4Zyp4PbXrbqY8i5-50" value="" style="image;points=[];aspect=fixed;html=1;align=center;shadow=0;dashed=0;image=img/lib/allied_telesis/computer_and_terminals/Personal_Computer_with_Server.svg;" parent="1" vertex="1">
          <mxGeometry x="50" y="105" width="50" height="50" as="geometry" />
        </mxCell>
        <mxCell id="S1Diq4Zyp4PbXrbqY8i5-68" value="" style="image;html=1;image=img/lib/clip_art/computers/Printer_Commercial_128x128.png" parent="1" vertex="1">
          <mxGeometry x="450" y="105" width="60" height="60" as="geometry" />
        </mxCell>
        <mxCell id="S1Diq4Zyp4PbXrbqY8i5-69" value="" style="image;html=1;image=img/lib/clip_art/computers/Printer_Commercial_128x128.png" parent="1" vertex="1">
          <mxGeometry x="520" y="100" width="60" height="60" as="geometry" />
        </mxCell>
        <mxCell id="S1Diq4Zyp4PbXrbqY8i5-74" value="" style="image;html=1;image=img/lib/clip_art/networking/Print_Server_128x128.png" parent="1" vertex="1">
          <mxGeometry x="580" y="180" width="60" height="70" as="geometry" />
        </mxCell>
        <mxCell id="S1Diq4Zyp4PbXrbqY8i5-97" style="edgeStyle=orthogonalEdgeStyle;rounded=0;orthogonalLoop=1;jettySize=auto;html=1;fillColor=#d5e8d4;strokeColor=#82b366;" parent="1" source="S1Diq4Zyp4PbXrbqY8i5-90" target="S1Diq4Zyp4PbXrbqY8i5-96" edge="1">
          <mxGeometry relative="1" as="geometry" />
        </mxCell>
        <mxCell id="S1Diq4Zyp4PbXrbqY8i5-90" value="" style="image;points=[];aspect=fixed;html=1;align=center;shadow=0;dashed=0;image=img/lib/allied_telesis/computer_and_terminals/Personal_Computer_with_Server.svg;" parent="1" vertex="1">
          <mxGeometry x="455" y="660" width="50" height="50" as="geometry" />
        </mxCell>
        <mxCell id="S1Diq4Zyp4PbXrbqY8i5-91" value="" style="image;points=[];aspect=fixed;html=1;align=center;shadow=0;dashed=0;image=img/lib/allied_telesis/computer_and_terminals/Personal_Computer_with_Server.svg;" parent="1" vertex="1">
          <mxGeometry x="530" y="670" width="50" height="50" as="geometry" />
        </mxCell>
        <mxCell id="S1Diq4Zyp4PbXrbqY8i5-92" value="" style="image;points=[];aspect=fixed;html=1;align=center;shadow=0;dashed=0;image=img/lib/allied_telesis/computer_and_terminals/Personal_Computer_with_Server.svg;" parent="1" vertex="1">
          <mxGeometry x="610" y="660" width="50" height="50" as="geometry" />
        </mxCell>
        <mxCell id="S1Diq4Zyp4PbXrbqY8i5-93" value="" style="image;points=[];aspect=fixed;html=1;align=center;shadow=0;dashed=0;image=img/lib/allied_telesis/computer_and_terminals/Personal_Computer_with_Server.svg;" parent="1" vertex="1">
          <mxGeometry x="690" y="660" width="50" height="50" as="geometry" />
        </mxCell>
        <mxCell id="S1Diq4Zyp4PbXrbqY8i5-96" value="" style="image;html=1;image=img/lib/clip_art/computers/Printer_128x128.png" parent="1" vertex="1">
          <mxGeometry x="450" y="740" width="60" height="50" as="geometry" />
        </mxCell>
        <mxCell id="S1Diq4Zyp4PbXrbqY8i5-99" style="edgeStyle=orthogonalEdgeStyle;rounded=0;orthogonalLoop=1;jettySize=auto;html=1;entryX=0.56;entryY=-0.128;entryDx=0;entryDy=0;entryPerimeter=0;fillColor=#d5e8d4;strokeColor=#82b366;" parent="1" target="S1Diq4Zyp4PbXrbqY8i5-91" edge="1">
          <mxGeometry relative="1" as="geometry">
            <Array as="points">
              <mxPoint x="397" y="640" />
              <mxPoint x="558" y="640" />
            </Array>
            <mxPoint x="400" y="420" as="sourcePoint" />
          </mxGeometry>
        </mxCell>
        <mxCell id="S1Diq4Zyp4PbXrbqY8i5-103" value="" style="image;html=1;image=img/lib/clip_art/computers/Netbook_128x128.png" parent="1" vertex="1">
          <mxGeometry x="455" y="557" width="60" height="55" as="geometry" />
        </mxCell>
        <mxCell id="S1Diq4Zyp4PbXrbqY8i5-104" value="" style="image;html=1;image=img/lib/clip_art/computers/Netbook_128x128.png" parent="1" vertex="1">
          <mxGeometry x="530" y="557" width="60" height="55" as="geometry" />
        </mxCell>
        <mxCell id="S1Diq4Zyp4PbXrbqY8i5-105" value="" style="image;html=1;image=img/lib/clip_art/computers/Netbook_128x128.png" parent="1" vertex="1">
          <mxGeometry x="610" y="557" width="60" height="55" as="geometry" />
        </mxCell>
        <mxCell id="S1Diq4Zyp4PbXrbqY8i5-110" value="" style="sketch=0;pointerEvents=1;shadow=0;dashed=0;html=1;strokeColor=none;fillColor=#505050;labelPosition=center;verticalLabelPosition=bottom;verticalAlign=top;outlineConnect=0;align=center;shape=mxgraph.office.servers.file_server;" parent="1" vertex="1">
          <mxGeometry x="710" y="529" width="45" height="56" as="geometry" />
        </mxCell>
        <mxCell id="knD-qnPcOZu40A_G0OKL-2" value="" style="image;html=1;image=img/lib/clip_art/networking/Switch_128x128.png" vertex="1" parent="1">
          <mxGeometry x="370" y="522.6" width="65" height="62.4" as="geometry" />
        </mxCell>
        <mxCell id="knD-qnPcOZu40A_G0OKL-7" value="" style="image;html=1;image=img/lib/clip_art/networking/Switch_128x128.png" vertex="1" parent="1">
          <mxGeometry x="230" y="288.8" width="65" height="62.4" as="geometry" />
        </mxCell>
        <mxCell id="knD-qnPcOZu40A_G0OKL-13" value="" style="edgeStyle=orthogonalEdgeStyle;rounded=0;orthogonalLoop=1;jettySize=auto;html=1;entryX=0;entryY=0.5;entryDx=0;entryDy=0;entryPerimeter=0;fillColor=#f8cecc;strokeColor=#b85450;" edge="1" parent="1" target="knD-qnPcOZu40A_G0OKL-11">
          <mxGeometry relative="1" as="geometry">
            <mxPoint x="380" y="370" as="sourcePoint" />
            <mxPoint x="620" y="455" as="targetPoint" />
            <Array as="points">
              <mxPoint x="380" y="340" />
              <mxPoint x="404" y="340" />
            </Array>
          </mxGeometry>
        </mxCell>
        <mxCell id="knD-qnPcOZu40A_G0OKL-15" style="edgeStyle=orthogonalEdgeStyle;rounded=0;orthogonalLoop=1;jettySize=auto;html=1;exitX=0.5;exitY=0;exitDx=0;exitDy=0;fillColor=#f8cecc;strokeColor=#b85450;" edge="1" parent="1" source="knD-qnPcOZu40A_G0OKL-11" target="S1Diq4Zyp4PbXrbqY8i5-32">
          <mxGeometry relative="1" as="geometry">
            <mxPoint x="520" y="240" as="targetPoint" />
            <Array as="points">
              <mxPoint x="436" y="270" />
            </Array>
          </mxGeometry>
        </mxCell>
        <mxCell id="knD-qnPcOZu40A_G0OKL-11" value="" style="image;html=1;image=img/lib/clip_art/networking/Switch_128x128.png" vertex="1" parent="1">
          <mxGeometry x="403.49" y="320" width="65" height="62.4" as="geometry" />
        </mxCell>
        <mxCell id="knD-qnPcOZu40A_G0OKL-16" style="edgeStyle=orthogonalEdgeStyle;rounded=0;orthogonalLoop=1;jettySize=auto;html=1;exitX=1;exitY=0;exitDx=0;exitDy=0;entryX=-0.032;entryY=0.45;entryDx=0;entryDy=0;entryPerimeter=0;fillColor=#f8cecc;strokeColor=#b85450;" edge="1" parent="1" source="knD-qnPcOZu40A_G0OKL-11" target="S1Diq4Zyp4PbXrbqY8i5-35">
          <mxGeometry relative="1" as="geometry">
            <Array as="points">
              <mxPoint x="469" y="310" />
              <mxPoint x="548" y="310" />
              <mxPoint x="548" y="318" />
            </Array>
          </mxGeometry>
        </mxCell>
      </root>
    </mxGraphModel>
  </diagram>
</mxfile>
